<svg xmlns="http://www.w3.org/2000/svg" viewBox="0 0 400 240" role="img" aria-label="DonutNV CRM project">
  <defs>
    <linearGradient id="dnv-bg" x1="0%" y1="0%" x2="100%" y2="100%">
      <stop offset="0%" style="stop-color:#1a0a2e"/>
      <stop offset="100%" style="stop-color:#2d1b4e"/>
    </linearGradient>
    <linearGradient id="dnv-accent" x1="0%" y1="0%" x2="100%" y2="0%">
      <stop offset="0%" style="stop-color:#623686"/>
      <stop offset="100%" style="stop-color:#c17b9e"/>
    </linearGradient>
  </defs>
  <rect width="400" height="240" rx="12" fill="url(#dnv-bg)"/>
  <text x="200" y="40" text-anchor="middle" fill="#e8dff5" font-family="system-ui,Segoe UI,sans-serif" font-size="17" font-weight="600">DonutNV</text>
  <text x="200" y="60" text-anchor="middle" fill="#a890c0" font-family="system-ui,Segoe UI,sans-serif" font-size="11">CRM · Booking · Square</text>
  <!-- Stylized donut -->
  <ellipse cx="200" cy="128" rx="52" ry="48" fill="url(#dnv-accent)" opacity="0.9"/>
  <ellipse cx="200" cy="128" rx="20" ry="18" fill="#1a0a2e"/>
  <circle cx="182" cy="115" r="4" fill="#f5e6ff" opacity="0.35"/>
  <circle cx="218" cy="122" r="3" fill="#f5e6ff" opacity="0.35"/>
  <circle cx="196" cy="138" r="3.5" fill="#f5e6ff" opacity="0.3"/>
  <!-- Map pin -->
  <path d="M310 88 L310 130 C310 146 285 160 285 160 C285 160 260 146 260 130 L260 88 Z" fill="#623686" opacity="0.85"/>
  <circle cx="285" cy="105" r="9" fill="#e8dff5"/>
  <!-- Calendar hint -->
  <rect x="58" y="92" width="56" height="48" rx="4" fill="none" stroke="#9b6dc6" stroke-width="2" opacity="0.8"/>
  <line x1="58" y1="104" x2="114" y2="104" stroke="#9b6dc6" stroke-width="2" opacity="0.8"/>
  <rect x="72" y="114" width="10" height="8" rx="1" fill="#623686" opacity="0.6"/>
  <rect x="88" y="118" width="10" height="8" rx="1" fill="#623686" opacity="0.45"/>
</svg>
